<?xml version="1.0" encoding="utf-8"?>
<!-- Generator: Adobe Illustrator 22.1.0, SVG Export Plug-In . SVG Version: 6.00 Build 0)  -->
<svg version="1.1" id="Layer_1" xmlns="http://www.w3.org/2000/svg" xmlns:xlink="http://www.w3.org/1999/xlink" x="0px" y="0px"
	 viewBox="0 0 901 304" style="enable-background:new 0 0 901 304;" xml:space="preserve">
<style type="text/css">
	.st0{fill:#422560;}
	.st1{font-family:'Tahoma-Bold';}
	.st2{font-size:31.6462px;}
	.st3{fill:none;stroke:#422560;}
	.st4{opacity:0.3333;fill:#FFC333;}
	.st5{opacity:0.6353;fill:#FFC333;}
	.st6{font-size:23.0154px;}
	.st7{fill:none;stroke:#707070;}
</style>
<text transform="matrix(1 0 0 1 421.1377 27.3262)" class="st0 st1 st2">F</text>
<text transform="matrix(1 0 0 1 440.791 27.3262)" class="st0 st1 st2">e</text>
<text transform="matrix(1 0 0 1 460.8467 27.3262)" class="st0 st1 st2">b</text>
<polygon class="st0" points="232.7,23.8 234.3,22.2 228.2,16.2 241.5,16.2 241.5,13.9 228.2,13.9 234.3,7.8 232.7,6.2 223.9,15 "/>
<polygon class="st0" points="687.3,6.2 685.7,7.8 691.7,13.9 678.5,13.9 678.5,16.2 691.7,16.2 685.7,22.2 687.3,23.8 696.1,15 "/>
<g>
	<line class="st3" x1="232.8" y1="45.1" x2="696" y2="45.1"/>
	<path class="st4" d="M1.2,139.5V94.5c0-0.6,0.1-1.2,0.4-1.8c0.2-0.6,0.6-1.1,1-1.6c0.4-0.4,1-0.8,1.6-1s1.2-0.4,1.8-0.4H896
		c0.6,0,1.2,0.1,1.8,0.4c0.6,0.2,1.1,0.6,1.6,1c0.4,0.4,0.8,1,1,1.6c0.2,0.6,0.4,1.2,0.4,1.8v45.1c0,0.6-0.1,1.2-0.4,1.8
		c-0.2,0.6-0.6,1.1-1,1.6c-0.4,0.4-1,0.8-1.6,1c-0.6,0.2-1.2,0.4-1.8,0.4H6c-0.6,0-1.2-0.1-1.8-0.4c-0.6-0.2-1.1-0.6-1.6-1
		c-0.4-0.4-0.8-1-1-1.6S1.2,140.2,1.2,139.5z"/>
	<path class="st5" d="M27.1,139.5V94.5c0-0.6,0.1-1.2,0.4-1.8c0.2-0.6,0.6-1.1,1-1.6c0.4-0.4,1-0.8,1.6-1s1.2-0.4,1.8-0.4h54.7
		c0.6,0,1.2,0.1,1.8,0.4c0.6,0.2,1.1,0.6,1.6,1c0.4,0.4,0.8,1,1,1.6c0.2,0.6,0.4,1.2,0.4,1.8v45.1c0,0.6-0.1,1.2-0.4,1.8
		c-0.2,0.6-0.6,1.1-1,1.6c-0.4,0.4-1,0.8-1.6,1c-0.6,0.2-1.2,0.4-1.8,0.4H31.9c-0.6,0-1.2-0.1-1.8-0.4c-0.6-0.2-1.1-0.6-1.6-1
		c-0.4-0.4-0.8-1-1-1.6S27.1,140.2,27.1,139.5z"/>
	<text transform="matrix(1 0 0 1 52.5498 121.3066)" class="st0 st1 st6">1</text>
	<text transform="matrix(1 0 0 1 182.2812 121.3066)" class="st0 st1 st6">2</text>
	<text transform="matrix(1 0 0 1 312.0137 121.3066)" class="st0 st1 st6">3</text>
	<text transform="matrix(1 0 0 1 441.7441 121.3066)" class="st0 st1 st6">4</text>
	<text transform="matrix(1 0 0 1 571.4766 121.3066)" class="st0 st1 st6">5</text>
	<text transform="matrix(1 0 0 1 701.208 121.3066)" class="st0 st1 st6">6</text>
	<text transform="matrix(1 0 0 1 830.9395 121.3066)" class="st0 st1 st6">7</text>
	<text transform="matrix(1 0 0 1 51.9077 180.7627)" class="st0 st1 st6">8</text>
	<text transform="matrix(1 0 0 1 66.6772 180.7627)" class="st0 st1 st6"> </text>
	<text transform="matrix(1 0 0 1 73.5352 180.7627)" class="st0 st1 st6"> </text>
	<text transform="matrix(1 0 0 1 80.3931 180.7627)" class="st0 st1 st6"> </text>
	<text transform="matrix(1 0 0 1 87.251 180.7627)" class="st0 st1 st6"> </text>
	<text transform="matrix(1 0 0 1 94.1089 180.7627)" class="st0 st1 st6"> </text>
	<text transform="matrix(1 0 0 1 100.9668 180.7627)" class="st0 st1 st6"> </text>
	<text transform="matrix(1 0 0 1 107.8242 180.7627)" class="st0 st1 st6"> </text>
	<text transform="matrix(1 0 0 1 114.6826 180.7627)" class="st0 st1 st6"> </text>
	<text transform="matrix(1 0 0 1 121.5405 180.7627)" class="st0 st1 st6"> </text>
	<text transform="matrix(1 0 0 1 128.3984 180.7627)" class="st0 st1 st6"> </text>
	<text transform="matrix(1 0 0 1 135.2559 180.7627)" class="st0 st1 st6"> </text>
	<text transform="matrix(1 0 0 1 142.1138 180.7627)" class="st0 st1 st6"> </text>
	<text transform="matrix(1 0 0 1 148.9722 180.7627)" class="st0 st1 st6"> </text>
	<text transform="matrix(1 0 0 1 155.8301 180.7627)" class="st0 st1 st6"> </text>
	<text transform="matrix(1 0 0 1 162.688 180.7627)" class="st0 st1 st6"> </text>
	<text transform="matrix(1 0 0 1 169.5454 180.7627)" class="st0 st1 st6"> </text>
	<text transform="matrix(1 0 0 1 176.4033 180.7627)" class="st0 st1 st6"> </text>
	<text transform="matrix(1 0 0 1 183.2612 180.7627)" class="st0 st1 st6">9</text>
	<text transform="matrix(1 0 0 1 198.0312 180.7627)" class="st0 st1 st6"> </text>
	<text transform="matrix(1 0 0 1 204.8887 180.7627)" class="st0 st1 st6"> </text>
	<text transform="matrix(1 0 0 1 211.7461 180.7627)" class="st0 st1 st6"> </text>
	<text transform="matrix(1 0 0 1 218.6045 180.7627)" class="st0 st1 st6"> </text>
	<text transform="matrix(1 0 0 1 225.4629 180.7627)" class="st0 st1 st6"> </text>
	<text transform="matrix(1 0 0 1 232.3203 180.7627)" class="st0 st1 st6"> </text>
	<text transform="matrix(1 0 0 1 239.1777 180.7627)" class="st0 st1 st6"> </text>
	<text transform="matrix(1 0 0 1 246.0361 180.7627)" class="st0 st1 st6"> </text>
	<text transform="matrix(1 0 0 1 252.8945 180.7627)" class="st0 st1 st6"> </text>
	<text transform="matrix(1 0 0 1 259.752 180.7627)" class="st0 st1 st6"> </text>
	<text transform="matrix(1 0 0 1 266.6094 180.7627)" class="st0 st1 st6"> </text>
	<text transform="matrix(1 0 0 1 273.4678 180.7627)" class="st0 st1 st6"> </text>
	<text transform="matrix(1 0 0 1 280.3262 180.7627)" class="st0 st1 st6"> </text>
	<text transform="matrix(1 0 0 1 287.1836 180.7627)" class="st0 st1 st6"> </text>
	<text transform="matrix(1 0 0 1 294.041 180.7627)" class="st0 st1 st6"> </text>
	<text transform="matrix(1 0 0 1 300.8984 180.7627)" class="st0 st1 st6"> </text>
	<text transform="matrix(1 0 0 1 307.7578 180.7627)" class="st0 st1 st6">1</text>
	<text transform="matrix(1 0 0 1 322.5264 180.7627)" class="st0 st1 st6">0</text>
	<text transform="matrix(1 0 0 1 337.2959 180.7627)" class="st0 st1 st6"> </text>
	<text transform="matrix(1 0 0 1 344.1543 180.7627)" class="st0 st1 st6"> </text>
	<text transform="matrix(1 0 0 1 351.0117 180.7627)" class="st0 st1 st6"> </text>
	<text transform="matrix(1 0 0 1 357.8691 180.7627)" class="st0 st1 st6"> </text>
	<text transform="matrix(1 0 0 1 364.7266 180.7627)" class="st0 st1 st6"> </text>
	<text transform="matrix(1 0 0 1 371.5859 180.7627)" class="st0 st1 st6"> </text>
	<text transform="matrix(1 0 0 1 378.4434 180.7627)" class="st0 st1 st6"> </text>
	<text transform="matrix(1 0 0 1 385.3008 180.7627)" class="st0 st1 st6"> </text>
	<text transform="matrix(1 0 0 1 392.1582 180.7627)" class="st0 st1 st6"> </text>
	<text transform="matrix(1 0 0 1 399.0166 180.7627)" class="st0 st1 st6"> </text>
	<text transform="matrix(1 0 0 1 405.875 180.7627)" class="st0 st1 st6"> </text>
	<text transform="matrix(1 0 0 1 412.7324 180.7627)" class="st0 st1 st6"> </text>
	<text transform="matrix(1 0 0 1 419.5898 180.7627)" class="st0 st1 st6"> </text>
	<text transform="matrix(1 0 0 1 426.4482 180.7627)" class="st0 st1 st6"> </text>
	<text transform="matrix(1 0 0 1 433.3066 180.7627)" class="st0 st1 st6"> </text>
	<text transform="matrix(1 0 0 1 440.1641 180.7627)" class="st0 st1 st6">1</text>
	<text transform="matrix(1 0 0 1 454.9336 180.7627)" class="st0 st1 st6">1</text>
	<text transform="matrix(1 0 0 1 469.7031 180.7627)" class="st0 st1 st6"> </text>
	<text transform="matrix(1 0 0 1 476.5605 180.7627)" class="st0 st1 st6"> </text>
	<text transform="matrix(1 0 0 1 483.4189 180.7627)" class="st0 st1 st6"> </text>
	<text transform="matrix(1 0 0 1 490.2773 180.7627)" class="st0 st1 st6"> </text>
	<text transform="matrix(1 0 0 1 497.1348 180.7627)" class="st0 st1 st6"> </text>
	<text transform="matrix(1 0 0 1 503.9922 180.7627)" class="st0 st1 st6"> </text>
	<text transform="matrix(1 0 0 1 510.8506 180.7627)" class="st0 st1 st6"> </text>
	<text transform="matrix(1 0 0 1 517.708 180.7627)" class="st0 st1 st6"> </text>
	<text transform="matrix(1 0 0 1 524.5664 180.7627)" class="st0 st1 st6"> </text>
	<text transform="matrix(1 0 0 1 531.4238 180.7627)" class="st0 st1 st6"> </text>
	<text transform="matrix(1 0 0 1 538.2822 180.7627)" class="st0 st1 st6"> </text>
	<text transform="matrix(1 0 0 1 545.1406 180.7627)" class="st0 st1 st6"> </text>
	<text transform="matrix(1 0 0 1 551.998 180.7627)" class="st0 st1 st6"> </text>
	<text transform="matrix(1 0 0 1 558.8555 180.7627)" class="st0 st1 st6"> </text>
	<text transform="matrix(1 0 0 1 565.7129 180.7627)" class="st0 st1 st6">1</text>
	<text transform="matrix(1 0 0 1 580.4824 180.7627)" class="st0 st1 st6">2</text>
	<text transform="matrix(1 0 0 1 595.252 180.7627)" class="st0 st1 st6"> </text>
	<text transform="matrix(1 0 0 1 602.1104 180.7627)" class="st0 st1 st6"> </text>
	<text transform="matrix(1 0 0 1 608.9688 180.7627)" class="st0 st1 st6"> </text>
	<text transform="matrix(1 0 0 1 615.8262 180.7627)" class="st0 st1 st6"> </text>
	<text transform="matrix(1 0 0 1 622.6836 180.7627)" class="st0 st1 st6"> </text>
	<text transform="matrix(1 0 0 1 629.541 180.7627)" class="st0 st1 st6"> </text>
	<text transform="matrix(1 0 0 1 636.4004 180.7627)" class="st0 st1 st6"> </text>
	<text transform="matrix(1 0 0 1 643.2578 180.7627)" class="st0 st1 st6"> </text>
	<text transform="matrix(1 0 0 1 650.1152 180.7627)" class="st0 st1 st6"> </text>
	<text transform="matrix(1 0 0 1 656.9727 180.7627)" class="st0 st1 st6"> </text>
	<text transform="matrix(1 0 0 1 663.8311 180.7627)" class="st0 st1 st6"> </text>
	<text transform="matrix(1 0 0 1 670.6895 180.7627)" class="st0 st1 st6"> </text>
	<text transform="matrix(1 0 0 1 677.5469 180.7627)" class="st0 st1 st6"> </text>
	<text transform="matrix(1 0 0 1 684.4043 180.7627)" class="st0 st1 st6"> </text>
	<text transform="matrix(1 0 0 1 691.2627 180.7627)" class="st0 st1 st6"> </text>
	<text transform="matrix(1 0 0 1 698.1211 180.7627)" class="st0 st1 st6">1</text>
	<text transform="matrix(1 0 0 1 712.8896 180.7627)" class="st0 st1 st6">3</text>
	<text transform="matrix(1 0 0 1 727.6592 180.7627)" class="st0 st1 st6"> </text>
	<text transform="matrix(1 0 0 1 734.5176 180.7627)" class="st0 st1 st6"> </text>
	<text transform="matrix(1 0 0 1 741.375 180.7627)" class="st0 st1 st6"> </text>
	<text transform="matrix(1 0 0 1 748.2334 180.7627)" class="st0 st1 st6"> </text>
	<text transform="matrix(1 0 0 1 755.0908 180.7627)" class="st0 st1 st6"> </text>
	<text transform="matrix(1 0 0 1 761.9492 180.7627)" class="st0 st1 st6"> </text>
	<text transform="matrix(1 0 0 1 768.8066 180.7627)" class="st0 st1 st6"> </text>
	<text transform="matrix(1 0 0 1 775.665 180.7627)" class="st0 st1 st6"> </text>
	<text transform="matrix(1 0 0 1 782.5225 180.7627)" class="st0 st1 st6"> </text>
	<text transform="matrix(1 0 0 1 789.3809 180.7627)" class="st0 st1 st6"> </text>
	<text transform="matrix(1 0 0 1 796.2383 180.7627)" class="st0 st1 st6"> </text>
	<text transform="matrix(1 0 0 1 803.0957 180.7627)" class="st0 st1 st6"> </text>
	<text transform="matrix(1 0 0 1 809.9541 180.7627)" class="st0 st1 st6"> </text>
	<text transform="matrix(1 0 0 1 816.8125 180.7627)" class="st0 st1 st6">1</text>
	<text transform="matrix(1 0 0 1 831.582 180.7627)" class="st0 st1 st6">4</text>
	<text transform="matrix(1 0 0 1 50.8545 243.0967)" class="st0 st1 st6">1</text>
	<text transform="matrix(1 0 0 1 65.624 243.0967)" class="st0 st1 st6">5</text>
	<text transform="matrix(1 0 0 1 80.3931 243.0967)" class="st0 st1 st6"> </text>
	<text transform="matrix(1 0 0 1 87.251 243.0967)" class="st0 st1 st6"> </text>
	<text transform="matrix(1 0 0 1 94.1089 243.0967)" class="st0 st1 st6"> </text>
	<text transform="matrix(1 0 0 1 100.9668 243.0967)" class="st0 st1 st6"> </text>
	<text transform="matrix(1 0 0 1 107.8242 243.0967)" class="st0 st1 st6"> </text>
	<text transform="matrix(1 0 0 1 114.6826 243.0967)" class="st0 st1 st6"> </text>
	<text transform="matrix(1 0 0 1 121.5405 243.0967)" class="st0 st1 st6"> </text>
	<text transform="matrix(1 0 0 1 128.3984 243.0967)" class="st0 st1 st6"> </text>
	<text transform="matrix(1 0 0 1 135.2559 243.0967)" class="st0 st1 st6"> </text>
	<text transform="matrix(1 0 0 1 142.1138 243.0967)" class="st0 st1 st6"> </text>
	<text transform="matrix(1 0 0 1 148.9722 243.0967)" class="st0 st1 st6"> </text>
	<text transform="matrix(1 0 0 1 155.8301 243.0967)" class="st0 st1 st6"> </text>
	<text transform="matrix(1 0 0 1 162.688 243.0967)" class="st0 st1 st6"> </text>
	<text transform="matrix(1 0 0 1 169.5454 243.0967)" class="st0 st1 st6"> </text>
	<text transform="matrix(1 0 0 1 176.4033 243.0967)" class="st0 st1 st6"> </text>
	<text transform="matrix(1 0 0 1 183.2612 243.0967)" class="st0 st1 st6">1</text>
	<text transform="matrix(1 0 0 1 198.0312 243.0967)" class="st0 st1 st6">6</text>
	<text transform="matrix(1 0 0 1 212.8008 243.0967)" class="st0 st1 st6"> </text>
	<text transform="matrix(1 0 0 1 219.6582 243.0967)" class="st0 st1 st6"> </text>
	<text transform="matrix(1 0 0 1 226.5156 243.0967)" class="st0 st1 st6"> </text>
	<text transform="matrix(1 0 0 1 233.374 243.0967)" class="st0 st1 st6"> </text>
	<text transform="matrix(1 0 0 1 240.2314 243.0967)" class="st0 st1 st6"> </text>
	<text transform="matrix(1 0 0 1 247.0898 243.0967)" class="st0 st1 st6"> </text>
	<text transform="matrix(1 0 0 1 253.9473 243.0967)" class="st0 st1 st6"> </text>
	<text transform="matrix(1 0 0 1 260.8057 243.0967)" class="st0 st1 st6"> </text>
	<text transform="matrix(1 0 0 1 267.6631 243.0967)" class="st0 st1 st6"> </text>
	<text transform="matrix(1 0 0 1 274.5215 243.0967)" class="st0 st1 st6"> </text>
	<text transform="matrix(1 0 0 1 281.3789 243.0967)" class="st0 st1 st6"> </text>
	<text transform="matrix(1 0 0 1 288.2373 243.0967)" class="st0 st1 st6"> </text>
	<text transform="matrix(1 0 0 1 295.0947 243.0967)" class="st0 st1 st6"> </text>
	<text transform="matrix(1 0 0 1 301.9531 243.0967)" class="st0 st1 st6"> </text>
	<text transform="matrix(1 0 0 1 308.8105 243.0967)" class="st0 st1 st6">1</text>
	<text transform="matrix(1 0 0 1 323.5801 243.0967)" class="st0 st1 st6">7</text>
	<text transform="matrix(1 0 0 1 338.3496 243.0967)" class="st0 st1 st6"> </text>
	<text transform="matrix(1 0 0 1 345.207 243.0967)" class="st0 st1 st6"> </text>
	<text transform="matrix(1 0 0 1 352.0654 243.0967)" class="st0 st1 st6"> </text>
	<text transform="matrix(1 0 0 1 358.9238 243.0967)" class="st0 st1 st6"> </text>
	<text transform="matrix(1 0 0 1 365.7812 243.0967)" class="st0 st1 st6"> </text>
	<text transform="matrix(1 0 0 1 372.6387 243.0967)" class="st0 st1 st6"> </text>
	<text transform="matrix(1 0 0 1 379.4971 243.0967)" class="st0 st1 st6"> </text>
	<text transform="matrix(1 0 0 1 386.3555 243.0967)" class="st0 st1 st6"> </text>
	<text transform="matrix(1 0 0 1 393.2129 243.0967)" class="st0 st1 st6"> </text>
	<text transform="matrix(1 0 0 1 400.0703 243.0967)" class="st0 st1 st6"> </text>
	<text transform="matrix(1 0 0 1 406.9277 243.0967)" class="st0 st1 st6"> </text>
	<text transform="matrix(1 0 0 1 413.7861 243.0967)" class="st0 st1 st6"> </text>
	<text transform="matrix(1 0 0 1 420.6445 243.0967)" class="st0 st1 st6"> </text>
	<text transform="matrix(1 0 0 1 427.502 243.0967)" class="st0 st1 st6"> </text>
	<text transform="matrix(1 0 0 1 434.3594 243.0967)" class="st0 st1 st6"> </text>
	<text transform="matrix(1 0 0 1 441.2178 243.0967)" class="st0 st1 st6">1</text>
	<text transform="matrix(1 0 0 1 455.9873 243.0967)" class="st0 st1 st6">8</text>
	<text transform="matrix(1 0 0 1 470.7559 243.0967)" class="st0 st1 st6"> </text>
	<text transform="matrix(1 0 0 1 477.6152 243.0967)" class="st0 st1 st6"> </text>
	<text transform="matrix(1 0 0 1 484.4727 243.0967)" class="st0 st1 st6"> </text>
	<text transform="matrix(1 0 0 1 491.3301 243.0967)" class="st0 st1 st6"> </text>
	<text transform="matrix(1 0 0 1 498.1885 243.0967)" class="st0 st1 st6"> </text>
	<text transform="matrix(1 0 0 1 505.0459 243.0967)" class="st0 st1 st6"> </text>
	<text transform="matrix(1 0 0 1 511.9043 243.0967)" class="st0 st1 st6"> </text>
	<text transform="matrix(1 0 0 1 518.7617 243.0967)" class="st0 st1 st6"> </text>
	<text transform="matrix(1 0 0 1 525.6191 243.0967)" class="st0 st1 st6"> </text>
	<text transform="matrix(1 0 0 1 532.4775 243.0967)" class="st0 st1 st6"> </text>
	<text transform="matrix(1 0 0 1 539.3359 243.0967)" class="st0 st1 st6"> </text>
	<text transform="matrix(1 0 0 1 546.1934 243.0967)" class="st0 st1 st6"> </text>
	<text transform="matrix(1 0 0 1 553.0518 243.0967)" class="st0 st1 st6"> </text>
	<text transform="matrix(1 0 0 1 559.9092 243.0967)" class="st0 st1 st6"> </text>
	<text transform="matrix(1 0 0 1 566.7676 243.0967)" class="st0 st1 st6">1</text>
	<text transform="matrix(1 0 0 1 581.5371 243.0967)" class="st0 st1 st6">9</text>
	<text transform="matrix(1 0 0 1 596.3057 243.0967)" class="st0 st1 st6"> </text>
	<text transform="matrix(1 0 0 1 603.1641 243.0967)" class="st0 st1 st6"> </text>
	<text transform="matrix(1 0 0 1 610.0215 243.0967)" class="st0 st1 st6"> </text>
	<text transform="matrix(1 0 0 1 616.8799 243.0967)" class="st0 st1 st6"> </text>
	<text transform="matrix(1 0 0 1 623.7383 243.0967)" class="st0 st1 st6"> </text>
	<text transform="matrix(1 0 0 1 630.5957 243.0967)" class="st0 st1 st6"> </text>
	<text transform="matrix(1 0 0 1 637.4531 243.0967)" class="st0 st1 st6"> </text>
	<text transform="matrix(1 0 0 1 644.3105 243.0967)" class="st0 st1 st6"> </text>
	<text transform="matrix(1 0 0 1 651.1699 243.0967)" class="st0 st1 st6"> </text>
	<text transform="matrix(1 0 0 1 658.0273 243.0967)" class="st0 st1 st6"> </text>
	<text transform="matrix(1 0 0 1 664.8848 243.0967)" class="st0 st1 st6"> </text>
	<text transform="matrix(1 0 0 1 671.7422 243.0967)" class="st0 st1 st6"> </text>
	<text transform="matrix(1 0 0 1 678.6006 243.0967)" class="st0 st1 st6"> </text>
	<text transform="matrix(1 0 0 1 685.459 243.0967)" class="st0 st1 st6"> </text>
	<text transform="matrix(1 0 0 1 692.3164 243.0967)" class="st0 st1 st6"> </text>
	<text transform="matrix(1 0 0 1 699.1738 243.0967)" class="st0 st1 st6">2</text>
	<text transform="matrix(1 0 0 1 713.9434 243.0967)" class="st0 st1 st6">0</text>
	<text transform="matrix(1 0 0 1 728.7129 243.0967)" class="st0 st1 st6"> </text>
	<text transform="matrix(1 0 0 1 735.5703 243.0967)" class="st0 st1 st6"> </text>
	<text transform="matrix(1 0 0 1 742.4287 243.0967)" class="st0 st1 st6"> </text>
	<text transform="matrix(1 0 0 1 749.2871 243.0967)" class="st0 st1 st6"> </text>
	<text transform="matrix(1 0 0 1 756.1445 243.0967)" class="st0 st1 st6"> </text>
	<text transform="matrix(1 0 0 1 763.002 243.0967)" class="st0 st1 st6"> </text>
	<text transform="matrix(1 0 0 1 769.8604 243.0967)" class="st0 st1 st6"> </text>
	<text transform="matrix(1 0 0 1 776.7188 243.0967)" class="st0 st1 st6"> </text>
	<text transform="matrix(1 0 0 1 783.5762 243.0967)" class="st0 st1 st6"> </text>
	<text transform="matrix(1 0 0 1 790.4336 243.0967)" class="st0 st1 st6"> </text>
	<text transform="matrix(1 0 0 1 797.292 243.0967)" class="st0 st1 st6"> </text>
	<text transform="matrix(1 0 0 1 804.1504 243.0967)" class="st0 st1 st6"> </text>
	<text transform="matrix(1 0 0 1 811.0078 243.0967)" class="st0 st1 st6"> </text>
	<text transform="matrix(1 0 0 1 817.8652 243.0967)" class="st0 st1 st6">2</text>
	<text transform="matrix(1 0 0 1 832.6348 243.0967)" class="st0 st1 st6">1</text>
	<text transform="matrix(1 0 0 1 50.8545 298.7168)" class="st0 st1 st6">2</text>
	<text transform="matrix(1 0 0 1 65.624 298.7168)" class="st0 st1 st6">2</text>
	<text transform="matrix(1 0 0 1 80.3931 298.7168)" class="st0 st1 st6"> </text>
	<text transform="matrix(1 0 0 1 87.251 298.7168)" class="st0 st1 st6"> </text>
	<text transform="matrix(1 0 0 1 94.1089 298.7168)" class="st0 st1 st6"> </text>
	<text transform="matrix(1 0 0 1 100.9668 298.7168)" class="st0 st1 st6"> </text>
	<text transform="matrix(1 0 0 1 107.8242 298.7168)" class="st0 st1 st6"> </text>
	<text transform="matrix(1 0 0 1 114.6826 298.7168)" class="st0 st1 st6"> </text>
	<text transform="matrix(1 0 0 1 121.5405 298.7168)" class="st0 st1 st6"> </text>
	<text transform="matrix(1 0 0 1 128.3984 298.7168)" class="st0 st1 st6"> </text>
	<text transform="matrix(1 0 0 1 135.2559 298.7168)" class="st0 st1 st6"> </text>
	<text transform="matrix(1 0 0 1 142.1138 298.7168)" class="st0 st1 st6"> </text>
	<text transform="matrix(1 0 0 1 148.9722 298.7168)" class="st0 st1 st6"> </text>
	<text transform="matrix(1 0 0 1 155.8301 298.7168)" class="st0 st1 st6"> </text>
	<text transform="matrix(1 0 0 1 162.688 298.7168)" class="st0 st1 st6"> </text>
	<text transform="matrix(1 0 0 1 169.5454 298.7168)" class="st0 st1 st6"> </text>
	<text transform="matrix(1 0 0 1 176.4033 298.7168)" class="st0 st1 st6"> </text>
	<text transform="matrix(1 0 0 1 183.2612 298.7168)" class="st0 st1 st6">2</text>
	<text transform="matrix(1 0 0 1 198.0312 298.7168)" class="st0 st1 st6">3</text>
	<text transform="matrix(1 0 0 1 212.8008 298.7168)" class="st0 st1 st6"> </text>
	<text transform="matrix(1 0 0 1 219.6582 298.7168)" class="st0 st1 st6"> </text>
	<text transform="matrix(1 0 0 1 226.5156 298.7168)" class="st0 st1 st6"> </text>
	<text transform="matrix(1 0 0 1 233.374 298.7168)" class="st0 st1 st6"> </text>
	<text transform="matrix(1 0 0 1 240.2314 298.7168)" class="st0 st1 st6"> </text>
	<text transform="matrix(1 0 0 1 247.0898 298.7168)" class="st0 st1 st6"> </text>
	<text transform="matrix(1 0 0 1 253.9473 298.7168)" class="st0 st1 st6"> </text>
	<text transform="matrix(1 0 0 1 260.8057 298.7168)" class="st0 st1 st6"> </text>
	<text transform="matrix(1 0 0 1 267.6631 298.7168)" class="st0 st1 st6"> </text>
	<text transform="matrix(1 0 0 1 274.5215 298.7168)" class="st0 st1 st6"> </text>
	<text transform="matrix(1 0 0 1 281.3789 298.7168)" class="st0 st1 st6"> </text>
	<text transform="matrix(1 0 0 1 288.2373 298.7168)" class="st0 st1 st6"> </text>
	<text transform="matrix(1 0 0 1 295.0947 298.7168)" class="st0 st1 st6"> </text>
	<text transform="matrix(1 0 0 1 301.9531 298.7168)" class="st0 st1 st6"> </text>
	<text transform="matrix(1 0 0 1 308.8105 298.7168)" class="st0 st1 st6">2</text>
	<text transform="matrix(1 0 0 1 323.5801 298.7168)" class="st0 st1 st6">4</text>
	<text transform="matrix(1 0 0 1 338.3496 298.7168)" class="st0 st1 st6"> </text>
	<text transform="matrix(1 0 0 1 345.207 298.7168)" class="st0 st1 st6"> </text>
	<text transform="matrix(1 0 0 1 352.0654 298.7168)" class="st0 st1 st6"> </text>
	<text transform="matrix(1 0 0 1 358.9238 298.7168)" class="st0 st1 st6"> </text>
	<text transform="matrix(1 0 0 1 365.7812 298.7168)" class="st0 st1 st6"> </text>
	<text transform="matrix(1 0 0 1 372.6387 298.7168)" class="st0 st1 st6"> </text>
	<text transform="matrix(1 0 0 1 379.4971 298.7168)" class="st0 st1 st6"> </text>
	<text transform="matrix(1 0 0 1 386.3555 298.7168)" class="st0 st1 st6"> </text>
	<text transform="matrix(1 0 0 1 393.2129 298.7168)" class="st0 st1 st6"> </text>
	<text transform="matrix(1 0 0 1 400.0703 298.7168)" class="st0 st1 st6"> </text>
	<text transform="matrix(1 0 0 1 406.9277 298.7168)" class="st0 st1 st6"> </text>
	<text transform="matrix(1 0 0 1 413.7861 298.7168)" class="st0 st1 st6"> </text>
	<text transform="matrix(1 0 0 1 420.6445 298.7168)" class="st0 st1 st6"> </text>
	<text transform="matrix(1 0 0 1 427.502 298.7168)" class="st0 st1 st6"> </text>
	<text transform="matrix(1 0 0 1 434.3594 298.7168)" class="st0 st1 st6"> </text>
	<text transform="matrix(1 0 0 1 441.2178 298.7168)" class="st0 st1 st6">2</text>
	<text transform="matrix(1 0 0 1 455.9873 298.7168)" class="st0 st1 st6">5</text>
	<text transform="matrix(1 0 0 1 470.7559 298.7168)" class="st0 st1 st6"> </text>
	<text transform="matrix(1 0 0 1 477.6152 298.7168)" class="st0 st1 st6"> </text>
	<text transform="matrix(1 0 0 1 484.4727 298.7168)" class="st0 st1 st6"> </text>
	<text transform="matrix(1 0 0 1 491.3301 298.7168)" class="st0 st1 st6"> </text>
	<text transform="matrix(1 0 0 1 498.1885 298.7168)" class="st0 st1 st6"> </text>
	<text transform="matrix(1 0 0 1 505.0459 298.7168)" class="st0 st1 st6"> </text>
	<text transform="matrix(1 0 0 1 511.9043 298.7168)" class="st0 st1 st6"> </text>
	<text transform="matrix(1 0 0 1 518.7617 298.7168)" class="st0 st1 st6"> </text>
	<text transform="matrix(1 0 0 1 525.6191 298.7168)" class="st0 st1 st6"> </text>
	<text transform="matrix(1 0 0 1 532.4775 298.7168)" class="st0 st1 st6"> </text>
	<text transform="matrix(1 0 0 1 539.3359 298.7168)" class="st0 st1 st6"> </text>
	<text transform="matrix(1 0 0 1 546.1934 298.7168)" class="st0 st1 st6"> </text>
	<text transform="matrix(1 0 0 1 553.0518 298.7168)" class="st0 st1 st6"> </text>
	<text transform="matrix(1 0 0 1 559.9092 298.7168)" class="st0 st1 st6"> </text>
	<text transform="matrix(1 0 0 1 566.7676 298.7168)" class="st0 st1 st6">2</text>
	<text transform="matrix(1 0 0 1 581.5371 298.7168)" class="st0 st1 st6">6</text>
	<text transform="matrix(1 0 0 1 596.3057 298.7168)" class="st0 st1 st6"> </text>
	<text transform="matrix(1 0 0 1 603.1641 298.7168)" class="st0 st1 st6"> </text>
	<text transform="matrix(1 0 0 1 610.0215 298.7168)" class="st0 st1 st6"> </text>
	<text transform="matrix(1 0 0 1 616.8799 298.7168)" class="st0 st1 st6"> </text>
	<text transform="matrix(1 0 0 1 623.7383 298.7168)" class="st0 st1 st6"> </text>
	<text transform="matrix(1 0 0 1 630.5957 298.7168)" class="st0 st1 st6"> </text>
	<text transform="matrix(1 0 0 1 637.4531 298.7168)" class="st0 st1 st6"> </text>
	<text transform="matrix(1 0 0 1 644.3105 298.7168)" class="st0 st1 st6"> </text>
	<text transform="matrix(1 0 0 1 651.1699 298.7168)" class="st0 st1 st6"> </text>
	<text transform="matrix(1 0 0 1 658.0273 298.7168)" class="st0 st1 st6"> </text>
	<text transform="matrix(1 0 0 1 664.8848 298.7168)" class="st0 st1 st6"> </text>
	<text transform="matrix(1 0 0 1 671.7422 298.7168)" class="st0 st1 st6"> </text>
	<text transform="matrix(1 0 0 1 678.6006 298.7168)" class="st0 st1 st6"> </text>
	<text transform="matrix(1 0 0 1 685.459 298.7168)" class="st0 st1 st6"> </text>
	<text transform="matrix(1 0 0 1 692.3164 298.7168)" class="st0 st1 st6"> </text>
	<text transform="matrix(1 0 0 1 699.1738 298.7168)" class="st0 st1 st6">2</text>
	<text transform="matrix(1 0 0 1 713.9434 298.7168)" class="st0 st1 st6">7</text>
	<text transform="matrix(1 0 0 1 728.7129 298.7168)" class="st0 st1 st6"> </text>
	<text transform="matrix(1 0 0 1 735.5703 298.7168)" class="st0 st1 st6"> </text>
	<text transform="matrix(1 0 0 1 742.4287 298.7168)" class="st0 st1 st6"> </text>
	<text transform="matrix(1 0 0 1 749.2871 298.7168)" class="st0 st1 st6"> </text>
	<text transform="matrix(1 0 0 1 756.1445 298.7168)" class="st0 st1 st6"> </text>
	<text transform="matrix(1 0 0 1 763.002 298.7168)" class="st0 st1 st6"> </text>
	<text transform="matrix(1 0 0 1 769.8604 298.7168)" class="st0 st1 st6"> </text>
	<text transform="matrix(1 0 0 1 776.7188 298.7168)" class="st0 st1 st6"> </text>
	<text transform="matrix(1 0 0 1 783.5762 298.7168)" class="st0 st1 st6"> </text>
	<text transform="matrix(1 0 0 1 790.4336 298.7168)" class="st0 st1 st6"> </text>
	<text transform="matrix(1 0 0 1 797.292 298.7168)" class="st0 st1 st6"> </text>
	<text transform="matrix(1 0 0 1 804.1504 298.7168)" class="st0 st1 st6"> </text>
	<text transform="matrix(1 0 0 1 811.0078 298.7168)" class="st0 st1 st6"> </text>
	<text transform="matrix(1 0 0 1 817.8652 298.7168)" class="st0 st1 st6">2</text>
	<text transform="matrix(1 0 0 1 832.6348 298.7168)" class="st0 st1 st6">8</text>
	<line class="st7" x1="0.8" y1="144.8" x2="900.3" y2="144.8"/>
	<line class="st7" x1="0.8" y1="264.7" x2="900.3" y2="264.7"/>
	<line class="st7" x1="0.8" y1="89.2" x2="900.3" y2="89.2"/>
	<line class="st7" x1="0.8" y1="204.3" x2="900.3" y2="204.3"/>
	<text transform="matrix(1 0 0 1 27.2783 77.1934)" class="st0 st1 st6">S</text>
	<text transform="matrix(1 0 0 1 42.4292 77.1934)" class="st0 st1 st6">u</text>
	<text transform="matrix(1 0 0 1 57.7378 77.1934)" class="st0 st1 st6">n</text>
	<text transform="matrix(1 0 0 1 73.0464 77.1934)" class="st0 st1 st6"> </text>
	<text transform="matrix(1 0 0 1 80.3647 77.1934)" class="st0 st1 st6"> </text>
	<text transform="matrix(1 0 0 1 87.6826 77.1934)" class="st0 st1 st6"> </text>
	<text transform="matrix(1 0 0 1 95.001 77.1934)" class="st0 st1 st6"> </text>
	<text transform="matrix(1 0 0 1 102.3193 77.1934)" class="st0 st1 st6"> </text>
	<text transform="matrix(1 0 0 1 109.6372 77.1934)" class="st0 st1 st6"> </text>
	<text transform="matrix(1 0 0 1 116.9556 77.1934)" class="st0 st1 st6"> </text>
	<text transform="matrix(1 0 0 1 124.2734 77.1934)" class="st0 st1 st6"> </text>
	<text transform="matrix(1 0 0 1 131.5918 77.1934)" class="st0 st1 st6"> </text>
	<text transform="matrix(1 0 0 1 138.9102 77.1934)" class="st0 st1 st6"> </text>
	<text transform="matrix(1 0 0 1 146.2285 77.1934)" class="st0 st1 st6"> </text>
	<text transform="matrix(1 0 0 1 153.5469 77.1934)" class="st0 st1 st6">M</text>
	<text transform="matrix(1 0 0 1 174.6758 77.1934)" class="st0 st1 st6">o</text>
	<text transform="matrix(1 0 0 1 189.4565 77.1934)" class="st0 st1 st6">n</text>
	<text transform="matrix(1 0 0 1 204.7646 77.1934)" class="st0 st1 st6"> </text>
	<text transform="matrix(1 0 0 1 212.083 77.1934)" class="st0 st1 st6"> </text>
	<text transform="matrix(1 0 0 1 219.4014 77.1934)" class="st0 st1 st6"> </text>
	<text transform="matrix(1 0 0 1 226.7197 77.1934)" class="st0 st1 st6"> </text>
	<text transform="matrix(1 0 0 1 234.0381 77.1934)" class="st0 st1 st6"> </text>
	<text transform="matrix(1 0 0 1 241.3564 77.1934)" class="st0 st1 st6"> </text>
	<text transform="matrix(1 0 0 1 248.6748 77.1934)" class="st0 st1 st6"> </text>
	<text transform="matrix(1 0 0 1 255.9922 77.1934)" class="st0 st1 st6"> </text>
	<text transform="matrix(1 0 0 1 263.3105 77.1934)" class="st0 st1 st6"> </text>
	<text transform="matrix(1 0 0 1 270.6289 77.1934)" class="st0 st1 st6"> </text>
	<text transform="matrix(1 0 0 1 277.9473 77.1934)" class="st0 st1 st6"> </text>
	<text transform="matrix(1 0 0 1 285.2656 77.1934)" class="st0 st1 st6">T</text>
	<text transform="matrix(1 0 0 1 299.9336 77.1934)" class="st0 st1 st6">u</text>
	<text transform="matrix(1 0 0 1 315.2412 77.1934)" class="st0 st1 st6">e</text>
	<text transform="matrix(1 0 0 1 329.4824 77.1934)" class="st0 st1 st6">s</text>
	<text transform="matrix(1 0 0 1 341.9023 77.1934)" class="st0 st1 st6"> </text>
	<text transform="matrix(1 0 0 1 349.2207 77.1934)" class="st0 st1 st6"> </text>
	<text transform="matrix(1 0 0 1 356.5391 77.1934)" class="st0 st1 st6"> </text>
	<text transform="matrix(1 0 0 1 363.8574 77.1934)" class="st0 st1 st6"> </text>
	<text transform="matrix(1 0 0 1 371.1748 77.1934)" class="st0 st1 st6"> </text>
	<text transform="matrix(1 0 0 1 378.4932 77.1934)" class="st0 st1 st6"> </text>
	<text transform="matrix(1 0 0 1 385.8115 77.1934)" class="st0 st1 st6"> </text>
	<text transform="matrix(1 0 0 1 393.1299 77.1934)" class="st0 st1 st6"> </text>
	<text transform="matrix(1 0 0 1 400.4482 77.1934)" class="st0 st1 st6"> </text>
	<text transform="matrix(1 0 0 1 407.7666 77.1934)" class="st0 st1 st6"> </text>
	<text transform="matrix(1 0 0 1 415.085 77.1934)" class="st0 st1 st6"> </text>
	<text transform="matrix(1 0 0 1 422.4023 77.1934)" class="st0 st1 st6">W</text>
	<text transform="matrix(1 0 0 1 446.6348 77.1934)" class="st0 st1 st6">e</text>
	<text transform="matrix(1 0 0 1 460.875 77.1934)" class="st0 st1 st6">d</text>
	<text transform="matrix(1 0 0 1 475.9355 77.1934)" class="st0 st1 st6"> </text>
	<text transform="matrix(1 0 0 1 483.2539 77.1934)" class="st0 st1 st6"> </text>
	<text transform="matrix(1 0 0 1 490.5723 77.1934)" class="st0 st1 st6"> </text>
	<text transform="matrix(1 0 0 1 497.8906 77.1934)" class="st0 st1 st6"> </text>
	<text transform="matrix(1 0 0 1 505.209 77.1934)" class="st0 st1 st6"> </text>
	<text transform="matrix(1 0 0 1 512.5273 77.1934)" class="st0 st1 st6"> </text>
	<text transform="matrix(1 0 0 1 519.8457 77.1934)" class="st0 st1 st6"> </text>
	<text transform="matrix(1 0 0 1 527.1631 77.1934)" class="st0 st1 st6"> </text>
	<text transform="matrix(1 0 0 1 534.4814 77.1934)" class="st0 st1 st6"> </text>
	<text transform="matrix(1 0 0 1 541.7998 77.1934)" class="st0 st1 st6"> </text>
	<text transform="matrix(1 0 0 1 549.1182 77.1934)" class="st0 st1 st6"> </text>
	<text transform="matrix(1 0 0 1 556.4365 77.1934)" class="st0 st1 st6">T</text>
	<text transform="matrix(1 0 0 1 571.1045 77.1934)" class="st0 st1 st6">h</text>
	<text transform="matrix(1 0 0 1 586.4131 77.1934)" class="st0 st1 st6">u</text>
	<text transform="matrix(1 0 0 1 601.7207 77.1934)" class="st0 st1 st6">r</text>
	<text transform="matrix(1 0 0 1 612.2754 77.1934)" class="st0 st1 st6"> </text>
	<text transform="matrix(1 0 0 1 619.5938 77.1934)" class="st0 st1 st6"> </text>
	<text transform="matrix(1 0 0 1 626.9121 77.1934)" class="st0 st1 st6"> </text>
	<text transform="matrix(1 0 0 1 634.2305 77.1934)" class="st0 st1 st6"> </text>
	<text transform="matrix(1 0 0 1 641.5479 77.1934)" class="st0 st1 st6"> </text>
	<text transform="matrix(1 0 0 1 648.8662 77.1934)" class="st0 st1 st6"> </text>
	<text transform="matrix(1 0 0 1 656.1846 77.1934)" class="st0 st1 st6"> </text>
	<text transform="matrix(1 0 0 1 663.5029 77.1934)" class="st0 st1 st6"> </text>
	<text transform="matrix(1 0 0 1 670.8213 77.1934)" class="st0 st1 st6"> </text>
	<text transform="matrix(1 0 0 1 678.1396 77.1934)" class="st0 st1 st6"> </text>
	<text transform="matrix(1 0 0 1 685.458 77.1934)" class="st0 st1 st6"> </text>
	<text transform="matrix(1 0 0 1 692.7754 77.1934)" class="st0 st1 st6">F</text>
	<text transform="matrix(1 0 0 1 706.7246 77.1934)" class="st0 st1 st6">r</text>
	<text transform="matrix(1 0 0 1 717.2793 77.1934)" class="st0 st1 st6">i</text>
	<text transform="matrix(1 0 0 1 724.7998 77.1934)" class="st0 st1 st6"> </text>
	<text transform="matrix(1 0 0 1 732.1182 77.1934)" class="st0 st1 st6"> </text>
	<text transform="matrix(1 0 0 1 739.4365 77.1934)" class="st0 st1 st6"> </text>
	<text transform="matrix(1 0 0 1 746.7539 77.1934)" class="st0 st1 st6"> </text>
	<text transform="matrix(1 0 0 1 754.0723 77.1934)" class="st0 st1 st6"> </text>
	<text transform="matrix(1 0 0 1 761.3906 77.1934)" class="st0 st1 st6"> </text>
	<text transform="matrix(1 0 0 1 768.709 77.1934)" class="st0 st1 st6"> </text>
	<text transform="matrix(1 0 0 1 776.0273 77.1934)" class="st0 st1 st6"> </text>
	<text transform="matrix(1 0 0 1 783.3457 77.1934)" class="st0 st1 st6"> </text>
	<text transform="matrix(1 0 0 1 790.6641 77.1934)" class="st0 st1 st6"> </text>
	<text transform="matrix(1 0 0 1 797.9814 77.1934)" class="st0 st1 st6"> </text>
	<text transform="matrix(1 0 0 1 805.2998 77.1934)" class="st0 st1 st6"> </text>
	<text transform="matrix(1 0 0 1 812.6182 77.1934)" class="st0 st1 st6">S</text>
	<text transform="matrix(1 0 0 1 827.7695 77.1934)" class="st0 st1 st6">a</text>
	<text transform="matrix(1 0 0 1 842.1221 77.1934)" class="st0 st1 st6">t</text>
</g>
</svg>
