<?xml version="1.0" encoding="utf-8"?>
<!-- Generator: Adobe Illustrator 22.1.0, SVG Export Plug-In . SVG Version: 6.00 Build 0)  -->
<svg version="1.1" id="Layer_1" xmlns="http://www.w3.org/2000/svg" xmlns:xlink="http://www.w3.org/1999/xlink" x="0px" y="0px"
	 viewBox="0 0 300 300" style="enable-background:new 0 0 300 300;" xml:space="preserve">
<style type="text/css">
	.st0{fill-rule:evenodd;clip-rule:evenodd;fill:#EDECFC;}
	.st1{fill-rule:evenodd;clip-rule:evenodd;fill:#A1A4F5;}
	.st2{fill:#FFFFFF;}
	.st3{font-family:'Tahoma-Bold';}
	.st4{font-size:40px;}
	.st5{font-size:24px;}
</style>
<path class="st0" d="M150.5,264.2c63.3,0,114.7-51.4,114.7-114.7S213.8,34.8,150.5,34.8c-63.3,0-114.7,51.4-114.7,114.7
	S87.2,264.2,150.5,264.2z M150.5,283C76.8,283,17,223.2,17,149.5S76.8,16,150.5,16S284,75.8,284,149.5S224.2,283,150.5,283z"/>
<path class="st1" d="M150,16C150,16,150,16,150,16l0,18.8c0.2,0,0.3,0,0.5,0c63.9,0,115.6,52.2,114.7,116.4
	c-0.9,61.6-51,111.9-112.6,113c-60.9,1.1-111.2-45.3-116.3-104.7c-0.4-4.8-4.5-8.5-9.4-8.5h0c-5.5,0-9.8,4.7-9.4,10.2
	c6.8,77.9,80.4,136.6,163.2,118.5c50-11,89.2-50.3,100.1-100.4C299.6,92.4,233.7,15.7,150,16z"/>
<text transform="matrix(1 0 0 1 112.5293 137.4929)" class="st2 st3 st4">480 </text>
<text transform="matrix(1 0 0 1 102.3867 167.4929)" class="st2 st3 st5">Calories </text>
<text transform="matrix(1 0 0 1 107.2559 197.4929)" class="st2 st3 st5">Burned</text>
</svg>
