<?xml version="1.0" encoding="utf-8"?>
<!-- Generator: Adobe Illustrator 22.1.0, SVG Export Plug-In . SVG Version: 6.00 Build 0)  -->
<svg version="1.1" id="Layer_1" xmlns="http://www.w3.org/2000/svg" xmlns:xlink="http://www.w3.org/1999/xlink" x="0px" y="0px"
	 viewBox="0 0 100 100" style="enable-background:new 0 0 100 100;" xml:space="preserve">
<style type="text/css">
	.st0{opacity:0.549;fill:#FFFFFF;enable-background:new    ;}
	.st1{opacity:0.549;fill:none;stroke:#FFFFFF;stroke-width:7;enable-background:new    ;}
</style>
<path class="st0" d="M45.7,67.3V55.8H34.2c-2.7,0-4.8-2.2-4.8-4.8s2.2-4.8,4.8-4.8h11.5V34.7c0-2.7,2.2-4.8,4.8-4.8
	c2.7,0,4.8,2.2,4.8,4.8v11.5h11.5c2.7,0,4.8,2.2,4.8,4.8s-2.2,4.8-4.8,4.8H55.3v11.5c0,2.7-2.2,4.8-4.8,4.8
	C47.8,72.1,45.7,69.9,45.7,67.3z"/>
<path class="st1" d="M50.3,6c6,0,11.7,1.1,17.2,3.4s10.4,5.5,14.6,9.8c4.2,4.2,7.5,9.1,9.8,14.6s3.4,11.3,3.4,17.2
	c0,6-1.1,11.7-3.4,17.2s-5.5,10.4-9.8,14.6c-4.2,4.2-9.1,7.5-14.6,9.8C62,94.9,56.3,96,50.3,96s-11.7-1.1-17.2-3.4
	s-10.4-5.5-14.6-9.8c-4.2-4.2-7.5-9.1-9.8-14.6S5.3,57,5.3,51s1.1-11.7,3.4-17.2s5.5-10.4,9.8-14.6c4.2-4.2,9.1-7.5,14.6-9.8
	S44.3,6,50.3,6z"/>
</svg>
